# xmcd
#
# Track frame offsets: 
#        150
#        21300
#        38797
#        52572
#        67888
#        82368
#        102229
#        129367
#        147661
#        170157
#        187420
#        201582
#        217433
#        241259
#
# Disc length: 3514 seconds
#
# Revision: 0
# Processed by: cddbd v1.5.2PL0 Copyright (c) Steve Scherf et al.
# Submitted via: ExactAudioCopy v0.99pb5
#
DISCID=df0db80e
DTITLE=Re-Flex - Movement of the Action Fraction
DYEAR=2010
DGENRE=Rock
TTITLE0=Mindless Dancing
TTITLE1=Bop Bop
TTITLE2=Praying to the Beat (Unpleasant Version)
TTITLE3=Love Sucks
TTITLE4=Graffiti
TTITLE5=Hurt (Maison Rouge version)
TTITLE6=Looney Tune
TTITLE7=Love At First Sight
TTITLE8=Alright on the Night
TTITLE9=Hit Line (Original Version)
TTITLE10=Mechanical Music
TTITLE11=Knock It
TTITLE12=This Beat
TTITLE13=Dub Dub Dancing
EXTD=
EXTT0=
EXTT1=
EXTT2=
EXTT3=
EXTT4=
EXTT5=
EXTT6=
EXTT7=
EXTT8=
EXTT9=
EXTT10=
EXTT11=
EXTT12=
EXTT13=
PLAYORDER=
